<svg width="30" height="30" 
viewBox="0 0 16 16" fill="none" xmlns="http://www.w3.org/2000/svg">
<path fill="#33D6BB"
d="M13.375 2C13.806 2 14.2193 2.1712 14.524 2.47595C14.8288 2.7807 15 3.19402 15 3.625V7.585C14.4498 6.88411 13.6529 6.41948 12.7719 6.28585C11.8909 6.15222 10.9921 6.35964 10.2588 6.86584C9.52543 7.37203 9.01278 8.13887 8.82533 9.01001C8.63789 9.88115 8.78976 10.791 9.25 11.554V12.5H2.625C2.19402 12.5 1.7807 12.3288 1.47595 12.024C1.1712 11.7193 1 11.306 1 10.875V3.625C1 3.19402 1.1712 2.7807 1.47595 2.47595C1.7807 2.1712 2.19402 2 2.625 2H13.375ZM11.5 5H4.5C4.36739 5 4.24021 5.05268 4.14645 5.14645C4.05268 5.24021 4 5.36739 4 5.5C4 5.63261 4.05268 5.75979 4.14645 5.85355C4.24021 5.94732 4.36739 6 4.5 6H11.5C11.6326 6 11.7598 5.94732 11.8536 5.85355C11.9473 5.75979 12 5.63261 12 5.5C12 5.36739 11.9473 5.24021 11.8536 5.14645C11.7598 5.05268 11.6326 5 11.5 5ZM8 9C8 8.86739 7.94732 8.74021 7.85355 8.64645C7.75979 8.55268 7.63261 8.5 7.5 8.5H4.5C4.36739 8.5 4.24021 8.55268 4.14645 8.64645C4.05268 8.74021 4 8.86739 4 9C4 9.13261 4.05268 9.25979 4.14645 9.35355C4.24021 9.44732 4.36739 9.5 4.5 9.5H7.5C7.63261 9.5 7.75979 9.44732 7.85355 9.35355C7.94732 9.25979 8 9.13261 8 9ZM9.5 9.75C9.5 10.4793 9.78973 11.1788 10.3055 11.6945C10.8212 12.2103 11.5207 12.5 12.25 12.5C12.9793 12.5 13.6788 12.2103 14.1945 11.6945C14.7103 11.1788 15 10.4793 15 9.75C15 9.02065 14.7103 8.32118 14.1945 7.80546C13.6788 7.28973 12.9793 7 12.25 7C11.5207 7 10.8212 7.28973 10.3055 7.80546C9.78973 8.32118 9.5 9.02065 9.5 9.75ZM10 12.431C10.6297 12.9612 11.4268 13.2513 12.25 13.25C13.0732 13.2513 13.8703 12.9612 14.5 12.431V14.5C14.5 14.5891 14.4761 14.6767 14.4309 14.7535C14.3857 14.8303 14.3208 14.8936 14.2428 14.9369C14.1649 14.9802 14.0768 15.0019 13.9877 14.9997C13.8986 14.9975 13.8117 14.9716 13.736 14.9245L12.25 13.9995L10.764 14.9245C10.6883 14.9716 10.6013 14.9976 10.5121 14.9997C10.423 15.0019 10.3349 14.9802 10.2569 14.9368C10.179 14.8935 10.1141 14.8301 10.0689 14.7532C10.0237 14.6763 9.99993 14.5887 10 14.4995V12.431Z"/>
</svg>
